<?xml version="1.0" encoding="UTF-8"?>
<svg id="uuid-16151a7d-07bc-4393-acd8-bcaaff225958" data-name="Ebene 1" xmlns="http://www.w3.org/2000/svg" viewBox="0 0 426.58 71.6">
  <defs>
    <style>
      .uuid-9a3440ef-87eb-4632-8e38-de6c2b1fb0d8 {
        fill: #459a35;
      }

      .uuid-84c7703c-4879-4d31-93de-776dc6239e4a {
        fill: #010101;
      }
    </style>
  </defs>
  <path class="uuid-9a3440ef-87eb-4632-8e38-de6c2b1fb0d8" d="M68.59,30.09c-1.47-1.88-3.22-3.28-5.26-4.18-2.05-.9-4.76-1.81-8.12-2.74-2.79-.77-4.93-1.47-6.48-2.08-1.53-.61-2.82-1.5-3.88-2.66-1.04-1.18-1.58-2.68-1.58-4.54,0-2.59.88-4.59,2.65-6.04,1.75-1.43,4.02-2.16,6.79-2.16,2.98,0,5.36.76,7.17,2.24,1.8,1.48,2.82,3.2,3.07,5.15h7.3c-.38-3.96-2.1-7.13-5.15-9.51-3.04-2.4-6.95-3.58-11.73-3.58-3.33,0-6.26.58-8.81,1.75-2.57,1.17-4.56,2.82-5.96,4.97-1.42,2.16-2.13,4.62-2.13,7.39,0,3.17.73,5.69,2.16,7.57,1.43,1.88,3.17,3.26,5.19,4.13,2.03.88,4.73,1.77,8.09,2.63,2.73.74,4.9,1.42,6.51,2.05,1.61.63,2.95,1.56,4.02,2.79,1.07,1.21,1.61,2.79,1.61,4.74,0,2.49-.91,4.52-2.74,6.1-1.83,1.59-4.32,2.38-7.49,2.38-3.33,0-5.85-.82-7.58-2.44-1.72-1.64-2.71-3.64-2.96-6.04h-7.09c.06,2.77.84,5.23,2.35,7.35,1.51,2.13,3.59,3.78,6.26,4.98,2.65,1.2,5.66,1.78,9.03,1.78s6.56-.68,9.14-2.03c2.57-1.37,4.52-3.15,5.85-5.34,1.31-2.19,1.97-4.54,1.97-7.01,0-3.23-.73-5.77-2.19-7.65Z"/>
  <path class="uuid-9a3440ef-87eb-4632-8e38-de6c2b1fb0d8" d="M92.85,17.04v-5.49h-10.45V1.45h-6.67v39.2c0,3.91.93,6.7,2.79,8.42,1.84,1.7,4.62,2.55,8.34,2.55h5.99v-5.63h-4.9c-2.05,0-3.48-.41-4.32-1.21-.82-.8-1.23-2.18-1.23-4.13v-23.61h10.45Z"/>
  <path class="uuid-9a3440ef-87eb-4632-8e38-de6c2b1fb0d8" d="M132.73,30.05c0-3.66-.79-6.94-2.38-9.84-1.58-2.9-3.83-5.17-6.76-6.83-2.92-1.67-6.29-2.49-10.09-2.49s-7.35.84-10.36,2.52c-2.99,1.69-5.31,4.08-6.98,7.2-1.66,3.12-2.48,6.75-2.48,10.89s.85,7.79,2.55,10.94c1.7,3.14,4.05,5.56,7.06,7.27,2.99,1.72,6.4,2.57,10.2,2.57,4.78,0,8.78-1.21,12-3.63,3.22-2.41,5.36-5.55,6.43-9.4h-7.17c-.77,2.24-2.13,4.04-4.05,5.38-1.92,1.34-4.34,2.02-7.2,2.02-3.52,0-6.49-1.12-8.95-3.34-2.47-2.21-3.81-5.3-4.07-9.24h32.03c.16-1.42.22-2.76.22-4.04ZM100.56,28.66c.33-3.8,1.69-6.78,4.05-8.92,2.36-2.14,5.23-3.22,8.59-3.22,2.35,0,4.48.47,6.4,1.43,1.92.95,3.45,2.33,4.57,4.16,1.12,1.83,1.69,4,1.69,6.54h-25.3Z"/>
  <rect class="uuid-9a3440ef-87eb-4632-8e38-de6c2b1fb0d8" x="136.78" y="11.55" width="6.65" height="40.07"/>
  <path class="uuid-9a3440ef-87eb-4632-8e38-de6c2b1fb0d8" d="M179.83,15.24c-3.01-2.95-6.97-4.43-11.84-4.43-2.73,0-5.23.57-7.5,1.69-2.27,1.12-4.05,2.71-5.37,4.74v-5.69h-6.65v40.07h6.65v-22.16c0-4.19,1.04-7.38,3.11-9.58,2.08-2.19,4.87-3.28,8.39-3.28s6.18,1.06,8.18,3.17c2,2.13,2.99,5.19,2.99,9.19v22.67h6.59v-23.63c0-5.55-1.51-9.81-4.54-12.75Z"/>
  <path class="uuid-84c7703c-4879-4d31-93de-776dc6239e4a" d="M232.13,12.68c-2.22-3.87-5.38-6.86-9.44-8.96-4.07-2.1-8.78-3.14-14.16-3.14h-17.84v8.63h17.48c5.36,0,9.5,1.49,12.43,4.49,2.92,3.01,4.39,7.16,4.39,12.47s-1.47,9.44-4.39,12.37c-2.93,2.92-7.07,4.39-12.43,4.39h-17.48v8.7h17.84c5.38,0,10.09-1.04,14.16-3.16,4.06-2.08,7.22-5.04,9.44-8.87,2.21-3.83,3.33-8.31,3.33-13.43s-1.12-9.62-3.33-13.49Z"/>
  <rect class="uuid-84c7703c-4879-4d31-93de-776dc6239e4a" x="238.4" y="11.11" width="10.23" height="40.51"/>
  <path class="uuid-84c7703c-4879-4d31-93de-776dc6239e4a" d="M283.25,11.11v5.77c-1.31-1.89-3.12-3.45-5.41-4.63-2.29-1.2-4.95-1.8-7.98-1.8-3.45,0-6.59.85-9.4,2.55-2.81,1.72-5.03,4.15-6.65,7.31-1.64,3.17-2.46,6.81-2.46,10.91s.82,7.8,2.46,11c1.62,3.18,3.86,5.66,6.68,7.42,2.84,1.75,5.96,2.63,9.36,2.63,2.98,0,5.63-.63,7.95-1.91,2.32-1.26,4.13-2.85,5.44-4.74v6.29c0,3.59-.93,6.29-2.77,8.07-1.86,1.78-4.27,2.68-7.24,2.68-2.54,0-4.7-.55-6.48-1.66-1.78-1.09-2.93-2.57-3.47-4.43h-10.17c.49,4.63,2.57,8.29,6.24,10.97,3.69,2.68,8.4,4.04,14.16,4.04,4.29,0,7.95-.87,10.97-2.6s5.3-4.07,6.81-7.03c1.5-2.95,2.25-6.29,2.25-10.04V11.11h-10.31ZM281.78,37.77c-.96,1.78-2.29,3.14-3.94,4.1-1.66.95-3.44,1.42-5.34,1.42s-3.59-.49-5.22-1.47c-1.64-.98-2.96-2.36-3.96-4.19-.99-1.83-1.5-3.97-1.5-6.4s.5-4.56,1.5-6.34c.99-1.78,2.3-3.12,3.91-4.05,1.61-.93,3.37-1.39,5.27-1.39s3.69.47,5.34,1.42c1.65.95,2.98,2.32,3.94,4.1.98,1.78,1.47,3.91,1.47,6.4s-.49,4.62-1.47,6.4Z"/>
  <rect class="uuid-84c7703c-4879-4d31-93de-776dc6239e4a" x="297.28" y="11.11" width="10.25" height="40.51"/>
  <path class="uuid-84c7703c-4879-4d31-93de-776dc6239e4a" d="M330.71,19.52v-8.4h-9.06V1.09h-10.31v37.96c0,8.39,4.32,12.58,12.94,12.58h6.43v-8.62h-4.74c-1.56,0-2.68-.32-3.33-.91-.66-.61-.99-1.61-.99-2.96v-19.61h9.06Z"/>
  <path class="uuid-84c7703c-4879-4d31-93de-776dc6239e4a" d="M364.21,11.11v5.77c-1.37-1.84-3.18-3.39-5.45-4.6-2.27-1.21-4.92-1.83-7.93-1.83-3.47,0-6.6.85-9.41,2.55-2.79,1.72-5.01,4.15-6.65,7.31-1.62,3.17-2.44,6.81-2.44,10.91s.82,7.8,2.44,11c1.64,3.18,3.86,5.66,6.65,7.42,2.81,1.75,5.91,2.63,9.33,2.63,3.03,0,5.69-.63,8.01-1.88,2.32-1.23,4.13-2.81,5.45-4.71v5.93h10.31V11.11h-10.31ZM362.74,37.77c-.98,1.78-2.3,3.14-3.96,4.1-1.65.95-3.44,1.42-5.33,1.42s-3.59-.49-5.23-1.47c-1.64-.98-2.95-2.36-3.96-4.19-.99-1.83-1.5-3.97-1.5-6.4s.5-4.56,1.5-6.34c1.01-1.78,2.32-3.12,3.93-4.05,1.61-.93,3.36-1.39,5.26-1.39s3.67.47,5.33,1.42c1.66.95,2.98,2.32,3.96,4.1.98,1.78,1.47,3.91,1.47,6.4s-.49,4.62-1.47,6.4Z"/>
  <path class="uuid-84c7703c-4879-4d31-93de-776dc6239e4a" d="M378.22.58v51.04h10.25V.58h-10.25Z"/>
  <rect class="uuid-9a3440ef-87eb-4632-8e38-de6c2b1fb0d8" x="238.4" y=".58" width="10.23" height="6.62"/>
  <rect class="uuid-9a3440ef-87eb-4632-8e38-de6c2b1fb0d8" x="297.28" y=".58" width="10.23" height="6.62"/>
  <rect class="uuid-84c7703c-4879-4d31-93de-776dc6239e4a" x="136.78" y=".58" width="6.62" height="6.62"/>
  <path class="uuid-84c7703c-4879-4d31-93de-776dc6239e4a" d="M21.23,51.63L0,31.37,21.23,11.2h10.13L10.04,31.37l21.32,20.26h-10.13Z"/>
  <path class="uuid-9a3440ef-87eb-4632-8e38-de6c2b1fb0d8" d="M395.22,51.63l21.32-20.26-21.32-20.17h10.13s21.23,20.17,21.23,20.17l-21.23,20.26h-10.13Z"/>
</svg>